{
    "asset" : {
        "generator" : "Khronos glTF Blender I/O v1.0.5",
        "version" : "2.0"
    },
    "scene" : 0,
    "scenes" : [
        {
            "name" : "Scene",
            "nodes" : [
                0,
                1,
                2
            ]
        }
    ],
    "nodes" : [
        {
            "mesh" : 0,
            "name" : "Icosphere",
            "rotation" : [
                0,
                0.7071067690849304,
                0,
                0.7071067690849304
            ],
            "scale" : [
                0.35802221298217773,
                1,
                1
            ],
            "translation" : [
                0,
                0.24355696141719818,
                0
            ]
        },
        {
            "name" : "Cube",
            "translation" : [
                0,
                -0.3019011318683624,
                0
            ]
        },
        {
            "mesh" : 1,
            "name" : "Sphere.007",
            "scale" : [
                0.0609525702893734,
                0.0609525702893734,
                0.0609525702893734
            ],
            "translation" : [
                -0.2680606245994568,
                0.27500906586647034,
                -0.031633131206035614
            ]
        }
    ],
    "materials" : [
        {
            "doubleSided" : true,
            "name" : "Material.002",
            "pbrMetallicRoughness" : {
                "baseColorTexture" : {
                    "index" : 0,
                    "texCoord" : 0
                },
                "metallicFactor" : 0,
                "roughnessFactor" : 0.5
            }
        },
        {
            "doubleSided" : true,
            "name" : "Material.001",
            "pbrMetallicRoughness" : {
                "baseColorTexture" : {
                    "index" : 1,
                    "texCoord" : 0
                },
                "metallicFactor" : 0,
                "roughnessFactor" : 0.5
            }
        }
    ],
    "meshes" : [
        {
            "name" : "Icosphere",
            "primitives" : [
                {
                    "attributes" : {
                        "POSITION" : 0,
                        "NORMAL" : 1,
                        "TEXCOORD_0" : 2
                    },
                    "indices" : 3,
                    "material" : 0
                }
            ]
        },
        {
            "name" : "Sphere.007",
            "primitives" : [
                {
                    "attributes" : {
                        "POSITION" : 4,
                        "NORMAL" : 5,
                        "TEXCOORD_0" : 6
                    },
                    "indices" : 7,
                    "material" : 1
                }
            ]
        }
    ],
    "textures" : [
        {
            "source" : 0
        },
        {
            "source" : 1
        }
    ],
    "images" : [
        {
            "bufferView" : 4,
            "mimeType" : "image/png",
            "name" : "foliage-arch"
        },
        {
            "bufferView" : 9,
            "mimeType" : "image/png",
            "name" : "flower-arch"
        }
    ],
    "accessors" : [
        {
            "bufferView" : 0,
            "componentType" : 5126,
            "count" : 202,
            "max" : [
                0.28988248109817505,
                0.30480000376701355,
                0.30480000376701355
            ],
            "min" : [
                -0.28988248109817505,
                -0.2592794597148895,
                -0.30480000376701355
            ],
            "type" : "VEC3"
        },
        {
            "bufferView" : 1,
            "componentType" : 5126,
            "count" : 202,
            "type" : "VEC3"
        },
        {
            "bufferView" : 2,
            "componentType" : 5126,
            "count" : 202,
            "type" : "VEC2"
        },
        {
            "bufferView" : 3,
            "componentType" : 5123,
            "count" : 216,
            "type" : "SCALAR"
        },
        {
            "bufferView" : 5,
            "componentType" : 5126,
            "count" : 8385,
            "max" : [
                9.100198745727539,
                3.9910106658935547,
                2.1632111072540283
            ],
            "min" : [
                -0.30479973554611206,
                -3.009854316711426,
                -0.973537266254425
            ],
            "type" : "VEC3"
        },
        {
            "bufferView" : 6,
            "componentType" : 5126,
            "count" : 8385,
            "type" : "VEC3"
        },
        {
            "bufferView" : 7,
            "componentType" : 5126,
            "count" : 8385,
            "type" : "VEC2"
        },
        {
            "bufferView" : 8,
            "componentType" : 5123,
            "count" : 43200,
            "type" : "SCALAR"
        }
    ],
    "bufferViews" : [
        {
            "buffer" : 0,
            "byteLength" : 2424,
            "byteOffset" : 0
        },
        {
            "buffer" : 0,
            "byteLength" : 2424,
            "byteOffset" : 2424
        },
        {
            "buffer" : 0,
            "byteLength" : 1616,
            "byteOffset" : 4848
        },
        {
            "buffer" : 0,
            "byteLength" : 432,
            "byteOffset" : 6464
        },
        {
            "buffer" : 0,
            "byteLength" : 184962,
            "byteOffset" : 6896
        },
        {
            "buffer" : 0,
            "byteLength" : 100620,
            "byteOffset" : 191860
        },
        {
            "buffer" : 0,
            "byteLength" : 100620,
            "byteOffset" : 292480
        },
        {
            "buffer" : 0,
            "byteLength" : 67080,
            "byteOffset" : 393100
        },
        {
            "buffer" : 0,
            "byteLength" : 86400,
            "byteOffset" : 460180
        },
        {
            "buffer" : 0,
            "byteLength" : 251073,
            "byteOffset" : 546580
        }
    ],
    "buffers" : [
        {
            "byteLength" : 797656,
            "uri" : "data:application/octet-stream;base64,"
        }
    ]
}
