{
    "asset" : {
        "generator" : "Khronos glTF Blender I/O v1.0.5",
        "version" : "2.0"
    },
    "scene" : 0,
    "scenes" : [
        {
            "name" : "Scene",
            "nodes" : [
                0,
                1
            ]
        }
    ],
    "nodes" : [
        {
            "mesh" : 0,
            "name" : "Stem",
            "scale" : [
                -0.12094056606292725,
                -0.41879305243492126,
                -0.12094056606292725
            ],
            "translation" : [
                0,
                0.13467708230018616,
                0
            ]
        },
        {
            "mesh" : 1,
            "name" : "Petals",
            "scale" : [
                0.16636230051517487,
                0.16636230051517487,
                0.16636230051517487
            ],
            "translation" : [
                -0.038749609142541885,
                0.28886061906814575,
                0.0631551593542099
            ]
        }
    ],
    "materials" : [
        {
            "doubleSided" : true,
            "name" : "Material.002",
            "pbrMetallicRoughness" : {
                "baseColorTexture" : {
                    "index" : 0,
                    "texCoord" : 0
                },
                "metallicFactor" : 0,
                "roughnessFactor" : 0.5
            }
        },
        {
            "doubleSided" : true,
            "name" : "Material.001",
            "pbrMetallicRoughness" : {
                "baseColorTexture" : {
                    "index" : 1,
                    "texCoord" : 0
                },
                "metallicFactor" : 0,
                "roughnessFactor" : 0.5
            }
        }
    ],
    "meshes" : [
        {
            "name" : "Cylinder",
            "primitives" : [
                {
                    "attributes" : {
                        "POSITION" : 0,
                        "NORMAL" : 1,
                        "TEXCOORD_0" : 2
                    },
                    "indices" : 3,
                    "material" : 0
                }
            ]
        },
        {
            "name" : "Sphere.005",
            "primitives" : [
                {
                    "attributes" : {
                        "POSITION" : 4,
                        "NORMAL" : 5,
                        "TEXCOORD_0" : 6
                    },
                    "indices" : 7,
                    "material" : 1
                }
            ]
        }
    ],
    "textures" : [
        {
            "source" : 0
        },
        {
            "source" : 1
        }
    ],
    "images" : [
        {
            "bufferView" : 4,
            "mimeType" : "image/png",
            "name" : "stem_leaf-flower"
        },
        {
            "bufferView" : 9,
            "mimeType" : "image/png",
            "name" : "Petal-flower"
        }
    ],
    "accessors" : [
        {
            "bufferView" : 0,
            "componentType" : 5126,
            "count" : 130,
            "max" : [
                0.30480000376701355,
                0.30480000376701355,
                0.30480000376701355
            ],
            "min" : [
                -0.30480000376701355,
                -0.30480000376701355,
                -0.30480000376701355
            ],
            "type" : "VEC3"
        },
        {
            "bufferView" : 1,
            "componentType" : 5126,
            "count" : 130,
            "type" : "VEC3"
        },
        {
            "bufferView" : 2,
            "componentType" : 5126,
            "count" : 130,
            "type" : "VEC2"
        },
        {
            "bufferView" : 3,
            "componentType" : 5123,
            "count" : 372,
            "type" : "SCALAR"
        },
        {
            "bufferView" : 5,
            "componentType" : 5126,
            "count" : 3913,
            "max" : [
                0.9902112483978271,
                0.39629605412483215,
                0.30480000376701355
            ],
            "min" : [
                -0.5305721759796143,
                -0.39629629254341125,
                -1.0751289129257202
            ],
            "type" : "VEC3"
        },
        {
            "bufferView" : 6,
            "componentType" : 5126,
            "count" : 3913,
            "type" : "VEC3"
        },
        {
            "bufferView" : 7,
            "componentType" : 5126,
            "count" : 3913,
            "type" : "VEC2"
        },
        {
            "bufferView" : 8,
            "componentType" : 5123,
            "count" : 20160,
            "type" : "SCALAR"
        }
    ],
    "bufferViews" : [
        {
            "buffer" : 0,
            "byteLength" : 1560,
            "byteOffset" : 0
        },
        {
            "buffer" : 0,
            "byteLength" : 1560,
            "byteOffset" : 1560
        },
        {
            "buffer" : 0,
            "byteLength" : 1040,
            "byteOffset" : 3120
        },
        {
            "buffer" : 0,
            "byteLength" : 744,
            "byteOffset" : 4160
        },
        {
            "buffer" : 0,
            "byteLength" : 92228,
            "byteOffset" : 4904
        },
        {
            "buffer" : 0,
            "byteLength" : 46956,
            "byteOffset" : 97132
        },
        {
            "buffer" : 0,
            "byteLength" : 46956,
            "byteOffset" : 144088
        },
        {
            "buffer" : 0,
            "byteLength" : 31304,
            "byteOffset" : 191044
        },
        {
            "buffer" : 0,
            "byteLength" : 40320,
            "byteOffset" : 222348
        },
        {
            "buffer" : 0,
            "byteLength" : 114554,
            "byteOffset" : 262668
        }
    ],
    "buffers" : [
        {
            "byteLength" : 377224,
            "uri" : "data:application/octet-stream;base64,"
        }
    ]
}
