{
    "asset" : {
        "generator" : "Khronos glTF Blender I/O v1.0.5",
        "version" : "2.0"
    },
    "scene" : 0,
    "scenes" : [
        {
            "name" : "Scene",
            "nodes" : [
                0,
                1
            ]
        }
    ],
    "nodes" : [
        {
            "mesh" : 0,
            "name" : "Stem",
            "translation" : [
                0,
                0.07889159768819809,
                0
            ]
        },
        {
            "mesh" : 1,
            "name" : "Petals",
            "scale" : [
                0.15891459584236145,
                0.0474998764693737,
                0.07828572392463684
            ],
            "translation" : [
                0.061863116919994354,
                0.1815962791442871,
                0
            ]
        }
    ],
    "materials" : [
        {
            "doubleSided" : true,
            "name" : "Material.002",
            "pbrMetallicRoughness" : {
                "baseColorTexture" : {
                    "index" : 0,
                    "texCoord" : 0
                },
                "metallicFactor" : 0,
                "roughnessFactor" : 0.5
            }
        },
        {
            "doubleSided" : true,
            "name" : "Material.001",
            "pbrMetallicRoughness" : {
                "baseColorTexture" : {
                    "index" : 1,
                    "texCoord" : 0
                },
                "metallicFactor" : 0,
                "roughnessFactor" : 0.5
            }
        }
    ],
    "meshes" : [
        {
            "name" : "Cylinder",
            "primitives" : [
                {
                    "attributes" : {
                        "POSITION" : 0,
                        "NORMAL" : 1,
                        "TEXCOORD_0" : 2
                    },
                    "indices" : 3,
                    "material" : 0
                }
            ]
        },
        {
            "name" : "Icosphere.001",
            "primitives" : [
                {
                    "attributes" : {
                        "POSITION" : 4,
                        "NORMAL" : 5,
                        "TEXCOORD_0" : 6
                    },
                    "indices" : 7,
                    "material" : 1
                }
            ]
        }
    ],
    "textures" : [
        {
            "source" : 0
        },
        {
            "source" : 1
        }
    ],
    "images" : [
        {
            "bufferView" : 4,
            "mimeType" : "image/png",
            "name" : "stem_leaf-flower"
        },
        {
            "bufferView" : 9,
            "mimeType" : "image/png",
            "name" : "petal-flower2"
        }
    ],
    "accessors" : [
        {
            "bufferView" : 0,
            "componentType" : 5126,
            "count" : 689,
            "max" : [
                0.03641967475414276,
                0.13584864139556885,
                0.03641967102885246
            ],
            "min" : [
                -0.03641963750123978,
                -0.0761999785900116,
                -0.036419615149497986
            ],
            "type" : "VEC3"
        },
        {
            "bufferView" : 1,
            "componentType" : 5126,
            "count" : 689,
            "type" : "VEC3"
        },
        {
            "bufferView" : 2,
            "componentType" : 5126,
            "count" : 689,
            "type" : "VEC2"
        },
        {
            "bufferView" : 3,
            "componentType" : 5123,
            "count" : 3252,
            "type" : "SCALAR"
        },
        {
            "bufferView" : 5,
            "componentType" : 5126,
            "count" : 1920,
            "max" : [
                0.28988248109817505,
                0.30480024218559265,
                1.4024240970611572
            ],
            "min" : [
                -1.0775423049926758,
                -0.30480000376701355,
                -1.373353362083435
            ],
            "type" : "VEC3"
        },
        {
            "bufferView" : 6,
            "componentType" : 5126,
            "count" : 1920,
            "type" : "VEC3"
        },
        {
            "bufferView" : 7,
            "componentType" : 5126,
            "count" : 1920,
            "type" : "VEC2"
        },
        {
            "bufferView" : 8,
            "componentType" : 5123,
            "count" : 1920,
            "type" : "SCALAR"
        }
    ],
    "bufferViews" : [
        {
            "buffer" : 0,
            "byteLength" : 8268,
            "byteOffset" : 0
        },
        {
            "buffer" : 0,
            "byteLength" : 8268,
            "byteOffset" : 8268
        },
        {
            "buffer" : 0,
            "byteLength" : 5512,
            "byteOffset" : 16536
        },
        {
            "buffer" : 0,
            "byteLength" : 6504,
            "byteOffset" : 22048
        },
        {
            "buffer" : 0,
            "byteLength" : 92228,
            "byteOffset" : 28552
        },
        {
            "buffer" : 0,
            "byteLength" : 23040,
            "byteOffset" : 120780
        },
        {
            "buffer" : 0,
            "byteLength" : 23040,
            "byteOffset" : 143820
        },
        {
            "buffer" : 0,
            "byteLength" : 15360,
            "byteOffset" : 166860
        },
        {
            "buffer" : 0,
            "byteLength" : 3840,
            "byteOffset" : 182220
        },
        {
            "buffer" : 0,
            "byteLength" : 162750,
            "byteOffset" : 186060
        }
    ],
    "buffers" : [
        {
            "byteLength" : 348812,
            "uri" : "data:application/octet-stream;base64,"
        }
    ]
}
