{
    "asset" : {
        "generator" : "Khronos glTF Blender I/O v1.0.5",
        "version" : "2.0"
    },
    "scene" : 0,
    "scenes" : [
        {
            "name" : "Scene",
            "nodes" : [
                0,
                1
            ]
        }
    ],
    "nodes" : [
        {
            "mesh" : 0,
            "name" : "trunk",
            "rotation" : [
                -0.24799944460391998,
                -0.17382536828517914,
                0.048593901097774506,
                0.951798141002655
            ],
            "scale" : [
                0.3679964542388916,
                0.367996484041214,
                0.3679964542388916
            ],
            "translation" : [
                0,
                1.4580113887786865,
                -0.252921998500824
            ]
        },
        {
            "mesh" : 1,
            "name" : "foliage",
            "translation" : [
                0,
                1.6802810430526733,
                0.4104219973087311
            ]
        }
    ],
    "materials" : [
        {
            "doubleSided" : true,
            "name" : "Material.001",
            "pbrMetallicRoughness" : {
                "baseColorTexture" : {
                    "index" : 0,
                    "texCoord" : 0
                },
                "metallicFactor" : 0,
                "roughnessFactor" : 0.5
            }
        },
        {
            "doubleSided" : true,
            "name" : "Material.002",
            "pbrMetallicRoughness" : {
                "baseColorTexture" : {
                    "index" : 1,
                    "texCoord" : 0
                },
                "metallicFactor" : 0,
                "roughnessFactor" : 0.5
            }
        }
    ],
    "meshes" : [
        {
            "name" : "Cone.001",
            "primitives" : [
                {
                    "attributes" : {
                        "POSITION" : 0,
                        "NORMAL" : 1,
                        "TEXCOORD_0" : 2
                    },
                    "indices" : 3,
                    "material" : 0
                }
            ]
        },
        {
            "name" : "Sphere.001",
            "primitives" : [
                {
                    "attributes" : {
                        "POSITION" : 4,
                        "NORMAL" : 5,
                        "TEXCOORD_0" : 6
                    },
                    "indices" : 7,
                    "material" : 1
                }
            ]
        }
    ],
    "textures" : [
        {
            "source" : 0
        },
        {
            "source" : 1
        }
    ],
    "images" : [
        {
            "bufferView" : 4,
            "mimeType" : "image/png",
            "name" : "trunk-tree"
        },
        {
            "bufferView" : 9,
            "mimeType" : "image/png",
            "name" : "foliage-tree"
        }
    ],
    "accessors" : [
        {
            "bufferView" : 0,
            "componentType" : 5126,
            "count" : 325,
            "max" : [
                1.4882841110229492,
                2.3937430381774902,
                2.155391216278076
            ],
            "min" : [
                -0.983589768409729,
                -3.976245164871216,
                -1.5575892925262451
            ],
            "type" : "VEC3"
        },
        {
            "bufferView" : 1,
            "componentType" : 5126,
            "count" : 325,
            "type" : "VEC3"
        },
        {
            "bufferView" : 2,
            "componentType" : 5126,
            "count" : 325,
            "type" : "VEC2"
        },
        {
            "bufferView" : 3,
            "componentType" : 5123,
            "count" : 930,
            "type" : "SCALAR"
        },
        {
            "bufferView" : 5,
            "componentType" : 5126,
            "count" : 3354,
            "max" : [
                0.8628184199333191,
                1.0659220218658447,
                0.30480000376701355
            ],
            "min" : [
                -0.8625048398971558,
                -0.6678140759468079,
                -1.0577327013015747
            ],
            "type" : "VEC3"
        },
        {
            "bufferView" : 6,
            "componentType" : 5126,
            "count" : 3354,
            "type" : "VEC3"
        },
        {
            "bufferView" : 7,
            "componentType" : 5126,
            "count" : 3354,
            "type" : "VEC2"
        },
        {
            "bufferView" : 8,
            "componentType" : 5123,
            "count" : 17280,
            "type" : "SCALAR"
        }
    ],
    "bufferViews" : [
        {
            "buffer" : 0,
            "byteLength" : 3900,
            "byteOffset" : 0
        },
        {
            "buffer" : 0,
            "byteLength" : 3900,
            "byteOffset" : 3900
        },
        {
            "buffer" : 0,
            "byteLength" : 2600,
            "byteOffset" : 7800
        },
        {
            "buffer" : 0,
            "byteLength" : 1860,
            "byteOffset" : 10400
        },
        {
            "buffer" : 0,
            "byteLength" : 155634,
            "byteOffset" : 12260
        },
        {
            "buffer" : 0,
            "byteLength" : 40248,
            "byteOffset" : 167896
        },
        {
            "buffer" : 0,
            "byteLength" : 40248,
            "byteOffset" : 208144
        },
        {
            "buffer" : 0,
            "byteLength" : 26832,
            "byteOffset" : 248392
        },
        {
            "buffer" : 0,
            "byteLength" : 34560,
            "byteOffset" : 275224
        },
        {
            "buffer" : 0,
            "byteLength" : 159466,
            "byteOffset" : 309784
        }
    ],
    "buffers" : [
        {
            "byteLength" : 469252,
            "uri" : "data:application/octet-stream;base64,"
        }
    ]
}
